<mxfile host="app.diagrams.net" modified="2023-04-06T10:30:02.005Z" agent="Mozilla/5.0 (Windows NT 10.0; Win64; x64) AppleWebKit/537.36 (KHTML, like Gecko) Chrome/111.0.0.0 Safari/537.36" etag="Rj62hBTtuvErd2O-dGWA" version="21.1.4" type="github">
  <diagram name="第 1 页" id="6r29H9cRSEstqKxB4Bpt">
    <mxGraphModel dx="1195" dy="637" grid="1" gridSize="10" guides="1" tooltips="1" connect="1" arrows="1" fold="1" page="1" pageScale="1" pageWidth="1654" pageHeight="2336" math="0" shadow="0">
      <root>
        <mxCell id="0" />
        <mxCell id="1" parent="0" />
        <mxCell id="SZgKgdD3rdmbUg4Z93Rw-16" value="" style="edgeStyle=orthogonalEdgeStyle;rounded=0;orthogonalLoop=1;jettySize=auto;html=1;" edge="1" parent="1" source="SZgKgdD3rdmbUg4Z93Rw-1" target="SZgKgdD3rdmbUg4Z93Rw-7">
          <mxGeometry relative="1" as="geometry" />
        </mxCell>
        <mxCell id="SZgKgdD3rdmbUg4Z93Rw-1" value="" style="shape=cube;whiteSpace=wrap;html=1;boundedLbl=1;backgroundOutline=1;darkOpacity=0.05;darkOpacity2=0.1;fillColor=#fad7ac;rotation=0;movable=0;resizable=0;rotatable=0;deletable=0;editable=0;locked=1;connectable=0;direction=west;flipV=1;strokeColor=#b46504;" vertex="1" parent="1">
          <mxGeometry x="90" y="120" width="30" height="90" as="geometry" />
        </mxCell>
        <mxCell id="SZgKgdD3rdmbUg4Z93Rw-7" value="" style="shape=cube;whiteSpace=wrap;html=1;boundedLbl=1;backgroundOutline=1;darkOpacity=0.05;darkOpacity2=0.1;fillColor=#fad7ac;rotation=0;movable=0;resizable=0;rotatable=0;deletable=0;editable=0;locked=1;connectable=0;direction=west;flipV=1;strokeColor=#b46504;" vertex="1" parent="1">
          <mxGeometry x="170" y="120" width="30" height="90" as="geometry" />
        </mxCell>
        <mxCell id="SZgKgdD3rdmbUg4Z93Rw-8" value="" style="shape=cube;whiteSpace=wrap;html=1;boundedLbl=1;backgroundOutline=1;darkOpacity=0.05;darkOpacity2=0.1;fillColor=#fad7ac;rotation=0;movable=0;resizable=0;rotatable=0;deletable=0;editable=0;locked=1;connectable=0;direction=west;flipV=1;strokeColor=#b46504;" vertex="1" parent="1">
          <mxGeometry x="210" y="200" width="30" height="90" as="geometry" />
        </mxCell>
        <mxCell id="SZgKgdD3rdmbUg4Z93Rw-17" value="" style="shape=cube;whiteSpace=wrap;html=1;boundedLbl=1;backgroundOutline=1;darkOpacity=0.05;darkOpacity2=0.1;fillColor=#fad7ac;rotation=0;movable=0;resizable=0;rotatable=0;deletable=0;editable=0;locked=1;connectable=0;direction=west;flipV=1;strokeColor=#b46504;" vertex="1" parent="1">
          <mxGeometry x="250" y="280" width="30" height="90" as="geometry" />
        </mxCell>
        <mxCell id="SZgKgdD3rdmbUg4Z93Rw-18" value="" style="shape=cube;whiteSpace=wrap;html=1;boundedLbl=1;backgroundOutline=1;darkOpacity=0.05;darkOpacity2=0.1;fillColor=#b0e3e6;rotation=0;movable=0;resizable=0;rotatable=0;deletable=0;editable=0;locked=1;connectable=0;direction=west;flipV=1;strokeColor=#0e8088;" vertex="1" parent="1">
          <mxGeometry x="290" y="280" width="30" height="90" as="geometry" />
        </mxCell>
        <mxCell id="SZgKgdD3rdmbUg4Z93Rw-19" value="" style="shape=cube;whiteSpace=wrap;html=1;boundedLbl=1;backgroundOutline=1;darkOpacity=0.05;darkOpacity2=0.1;fillColor=#fad7ac;rotation=0;movable=0;resizable=0;rotatable=0;deletable=0;editable=0;locked=1;connectable=0;direction=west;flipV=1;strokeColor=#b46504;" vertex="1" parent="1">
          <mxGeometry x="330" y="280" width="30" height="90" as="geometry" />
        </mxCell>
        <mxCell id="SZgKgdD3rdmbUg4Z93Rw-23" value="" style="endArrow=classic;html=1;rounded=0;" edge="1" parent="1" source="SZgKgdD3rdmbUg4Z93Rw-17">
          <mxGeometry width="50" height="50" relative="1" as="geometry">
            <mxPoint x="470" y="420" as="sourcePoint" />
            <mxPoint x="290" y="325" as="targetPoint" />
          </mxGeometry>
        </mxCell>
        <mxCell id="SZgKgdD3rdmbUg4Z93Rw-25" value="" style="endArrow=classic;html=1;rounded=0;movable=0;resizable=0;rotatable=0;deletable=0;editable=0;locked=1;connectable=0;" edge="1" parent="1">
          <mxGeometry width="50" height="50" relative="1" as="geometry">
            <mxPoint x="320" y="324.5" as="sourcePoint" />
            <mxPoint x="330" y="324.5" as="targetPoint" />
          </mxGeometry>
        </mxCell>
        <mxCell id="SZgKgdD3rdmbUg4Z93Rw-27" value="" style="endArrow=classic;html=1;rounded=0;" edge="1" parent="1">
          <mxGeometry width="50" height="50" relative="1" as="geometry">
            <mxPoint x="200" y="164.5" as="sourcePoint" />
            <mxPoint x="550" y="164.5" as="targetPoint" />
          </mxGeometry>
        </mxCell>
        <mxCell id="SZgKgdD3rdmbUg4Z93Rw-28" value="" style="ellipse;whiteSpace=wrap;html=1;aspect=fixed;fillColor=#fad9d5;strokeColor=#ae4132;movable=0;resizable=0;rotatable=0;deletable=0;editable=0;locked=1;connectable=0;" vertex="1" parent="1">
          <mxGeometry x="550" y="155" width="20" height="20" as="geometry" />
        </mxCell>
        <mxCell id="SZgKgdD3rdmbUg4Z93Rw-29" value="" style="shape=cube;whiteSpace=wrap;html=1;boundedLbl=1;backgroundOutline=1;darkOpacity=0.05;darkOpacity2=0.1;flipV=0;flipH=0;direction=south;fillColor=#fad9d5;strokeColor=#ae4132;movable=0;resizable=0;rotatable=0;deletable=0;editable=0;locked=1;connectable=0;" vertex="1" parent="1">
          <mxGeometry x="610" y="135" width="50" height="60" as="geometry" />
        </mxCell>
        <mxCell id="SZgKgdD3rdmbUg4Z93Rw-32" value="" style="endArrow=classic;html=1;rounded=0;" edge="1" parent="1">
          <mxGeometry width="50" height="50" relative="1" as="geometry">
            <mxPoint x="570" y="164.58" as="sourcePoint" />
            <mxPoint x="610" y="164.58" as="targetPoint" />
          </mxGeometry>
        </mxCell>
        <mxCell id="SZgKgdD3rdmbUg4Z93Rw-33" value="" style="ellipse;whiteSpace=wrap;html=1;aspect=fixed;fillColor=#fad9d5;strokeColor=#ae4132;movable=1;resizable=1;rotatable=1;deletable=1;editable=1;locked=0;connectable=1;" vertex="1" parent="1">
          <mxGeometry x="400" y="230" width="20" height="20" as="geometry" />
        </mxCell>
        <mxCell id="SZgKgdD3rdmbUg4Z93Rw-34" value="" style="shape=cube;whiteSpace=wrap;html=1;boundedLbl=1;backgroundOutline=1;darkOpacity=0.05;darkOpacity2=0.1;fillColor=#fad7ac;rotation=0;movable=0;resizable=0;rotatable=0;deletable=0;editable=0;locked=1;connectable=0;direction=west;flipV=1;strokeColor=#b46504;" vertex="1" parent="1">
          <mxGeometry x="490" y="200" width="30" height="90" as="geometry" />
        </mxCell>
        <mxCell id="SZgKgdD3rdmbUg4Z93Rw-35" value="" style="shape=cube;whiteSpace=wrap;html=1;boundedLbl=1;backgroundOutline=1;darkOpacity=0.05;darkOpacity2=0.1;fillColor=#b0e3e6;rotation=0;movable=0;resizable=0;rotatable=0;deletable=0;editable=0;locked=1;connectable=0;direction=west;flipV=1;strokeColor=#0e8088;" vertex="1" parent="1">
          <mxGeometry x="450" y="200" width="30" height="90" as="geometry" />
        </mxCell>
        <mxCell id="SZgKgdD3rdmbUg4Z93Rw-39" value="" style="endArrow=classic;html=1;rounded=0;" edge="1" parent="1">
          <mxGeometry width="50" height="50" relative="1" as="geometry">
            <mxPoint x="480" y="240" as="sourcePoint" />
            <mxPoint x="490" y="240" as="targetPoint" />
          </mxGeometry>
        </mxCell>
        <mxCell id="SZgKgdD3rdmbUg4Z93Rw-40" value="" style="endArrow=classic;html=1;rounded=0;exitX=1;exitY=0.5;exitDx=0;exitDy=0;" edge="1" parent="1" source="SZgKgdD3rdmbUg4Z93Rw-33">
          <mxGeometry width="50" height="50" relative="1" as="geometry">
            <mxPoint x="460" y="310" as="sourcePoint" />
            <mxPoint x="450" y="240" as="targetPoint" />
          </mxGeometry>
        </mxCell>
        <mxCell id="SZgKgdD3rdmbUg4Z93Rw-41" value="" style="endArrow=classic;html=1;rounded=0;entryX=0;entryY=0.5;entryDx=0;entryDy=0;" edge="1" parent="1" target="SZgKgdD3rdmbUg4Z93Rw-33">
          <mxGeometry width="50" height="50" relative="1" as="geometry">
            <mxPoint x="240" y="240" as="sourcePoint" />
            <mxPoint x="510" y="260" as="targetPoint" />
          </mxGeometry>
        </mxCell>
      </root>
    </mxGraphModel>
  </diagram>
</mxfile>
